<?xml version="1.0" encoding="utf-8"?>
<!-- Generator: Adobe Illustrator 16.0.0, SVG Export Plug-In . SVG Version: 6.00 Build 0)  -->
<!DOCTYPE svg PUBLIC "-//W3C//DTD SVG 1.1//EN" "http://www.w3.org/Graphics/SVG/1.1/DTD/svg11.dtd">
<svg version="1.1" id="Layer_1" xmlns="http://www.w3.org/2000/svg" xmlns:xlink="http://www.w3.org/1999/xlink" x="0px" y="0px"
	 width="100%" height="100%" viewBox="12 12 76.014 76" enable-background="new 12 12 76.014 76" xml:space="preserve">
<g id="_x37_7_Essential_Icons">
	<path id="Search" d="M87.4,77.7L68.5,58.8c3.2-5,4.7-10.8,4.7-16.5C73.2,25.4,59.7,12,42.8,12C25.2,12,11.9,25.9,12,42.6
		c0.1,16.7,13.6,30.6,30.8,30.6c5.8,0,11.3-1.601,16.101-4.601L77.8,87.4c0.8,0.8,2,0.8,2.8,0l6.9-6.9
		C88.2,79.7,88.2,78.5,87.4,77.7z M42.8,69.2c-15,0-26.7-12.101-26.8-26.7c-0.1-14.4,11.4-26.6,26.8-26.6c15,0,26.3,11.7,26.4,26.3
		C69.3,57.8,57,69.2,42.8,69.2z M79.1,83.2l-17-17c0.601-0.5,3.4-3.3,4.101-4.101l17,17L79.1,83.2z"/>
</g>
</svg>
