<?xml version="1.0" encoding="utf-8"?>
<!-- Generator: Adobe Illustrator 16.0.0, SVG Export Plug-In . SVG Version: 6.00 Build 0)  -->
<!DOCTYPE svg PUBLIC "-//W3C//DTD SVG 1.1//EN" "http://www.w3.org/Graphics/SVG/1.1/DTD/svg11.dtd">
<svg version="1.1" id="Layer_1" xmlns="http://www.w3.org/2000/svg" xmlns:xlink="http://www.w3.org/1999/xlink" x="0px" y="0px"
	 width="100%" height="100%" viewBox="36.578 6.922 29.1 27.518" enable-background="new 36.578 6.922 29.1 27.518"
	 xml:space="preserve">
<g>
	<path d="M50.125,22.469c0.151,0.103,0.422,0.154,0.484,0.187c0.164,0.084,0.593-0.006,0.663-0.111
		c0.234-0.109,0.254-0.84-0.152-1.106c-1.297-0.7-2.997-1.768-4.714-3.344c2.065-2.126,3.5-4.359,4.266-7.595l3.531,0.001
		c0.21,0,0.484-0.25,0.484-0.656c0-0.266-0.353-0.594-0.562-0.594l-7.891-0.016l-0.016-1.812c0.031-0.188-0.376-0.5-0.586-0.5
		c-0.211,0-0.572,0.297-0.571,0.594L45.02,9.25l-7.785,0.016c-0.438,0.016-0.656,0.509-0.656,0.719s0.281,0.516,0.562,0.5
		l12.172-0.011c-0.891,3.246-1.906,4.667-3.938,6.871c-1.532-1.661-1.981-2.396-3.048-4.336c-0.1-0.301-0.583-0.507-0.865-0.382
		c-0.087,0.039-0.47,0.149-0.387,0.753c0.893,2.142,1.975,3.314,3.379,4.762c-3.392,2.843-6.204,3.765-6.767,4.281
		c-0.297,0.297-0.262,0.766-0.192,0.941c0.07,0.14,0.254,0.359,0.551,0.355c0,0,0.125,0,0.391-0.109
		c0.246-0.104,3.68-1.573,6.938-4.516C47.197,20.74,48.794,21.768,50.125,22.469z"/>
	<path d="M65.583,33.084l-2.771-6.251l0,0l-5.209-11.958c-0.104-0.438-0.771-1.104-1.125-0.979l-0.104-0.007l0,0
		c-0.287-0.088-0.729,0.196-1,0.633L49.5,27.586l0,0l-2.558,5.853c-0.192,0.521,0.13,0.783,0.308,0.937
		c0.375,0.192,0.832-0.107,0.832-0.107s0.295-0.327,0.335-0.487l2.506-5.872h10.798l2.639,6.12c0.08,0.16,0.186,0.256,0.327,0.331
		c0.207,0.109,0.516,0.002,0.699-0.106C65.627,34.173,65.791,33.479,65.583,33.084z M51.639,26.383l4.703-11.04L60.99,26.48
		L51.639,26.383z"/>
</g>
</svg>
