<?xml version="1.0" encoding="utf-8"?>
<!-- Generator: Adobe Illustrator 16.0.0, SVG Export Plug-In . SVG Version: 6.00 Build 0)  -->
<!DOCTYPE svg PUBLIC "-//W3C//DTD SVG 1.1//EN" "http://www.w3.org/Graphics/SVG/1.1/DTD/svg11.dtd">
<svg version="1.1" id="Layer_1" xmlns="http://www.w3.org/2000/svg" xmlns:xlink="http://www.w3.org/1999/xlink" x="0px" y="0px"
	 width="100%" height="100%" viewBox="29.062 6.728 41.875 36.546" enable-background="new 29.062 6.728 41.875 36.546"
	 xml:space="preserve">
<path d="M59.705,8.737c5.085,0,9.222,4.137,9.222,9.221c0,0.083-0.017,0.16-0.026,0.239c-0.02,0.143-0.039,0.287-0.051,0.433
	l-0.064,1.12c-0.105,0.528-0.293,1.107-0.56,1.732l-0.032,0.082l-0.001,0.004c-3.062,7.053-14.399,16.26-18.138,19.166
	C46.639,38.042,36.846,30,32.781,23.295l-0.034-0.055l-0.038-0.053c-0.094-0.134-0.169-0.285-0.248-0.431
	c-0.061-0.113-0.12-0.225-0.183-0.334l-0.053-0.1c-0.244-0.452-0.417-0.826-0.568-1.234c-0.361-0.896-0.543-1.668-0.545-2.219
	c0.009-0.078,0.015-0.156,0.019-0.239l0.003-0.09l-0.005-0.091c-0.007-0.152-0.025-0.299-0.058-0.489
	c0-5.085,4.139-9.222,9.226-9.222c3.307,0,6.283,1.743,7.96,4.662l1.744,3.034l1.742-3.034C53.422,10.48,56.396,8.737,59.705,8.737
	L59.705,8.737 M59.705,6.728c-4.17,0-7.766,2.297-9.703,5.67c-1.939-3.374-5.536-5.67-9.703-5.67
	c-6.207,0-11.236,5.03-11.236,11.232c0,0.204,0.05,0.389,0.06,0.59c-0.003,0.085-0.018,0.16-0.018,0.245
	c0,0.944,0.255,1.967,0.688,3.043c0.185,0.505,0.414,0.975,0.664,1.439c0.021,0.041,0.044,0.082,0.065,0.123
	c0.179,0.314,0.335,0.647,0.54,0.94c5.204,8.581,18.983,18.934,18.983,18.934s16.064-11.86,19.992-20.903
	c0.014-0.028,0.023-0.062,0.038-0.096c0.521-1.22,0.823-2.396,0.823-3.479l-0.043-0.004c0.021-0.279,0.082-0.544,0.082-0.832
	C70.938,11.757,65.909,6.728,59.705,6.728L59.705,6.728L59.705,6.728z"/>
</svg>
