<?xml version="1.0" encoding="utf-8"?>
<!-- Generator: Adobe Illustrator 16.0.0, SVG Export Plug-In . SVG Version: 6.00 Build 0)  -->
<!DOCTYPE svg PUBLIC "-//W3C//DTD SVG 1.1//EN" "http://www.w3.org/Graphics/SVG/1.1/DTD/svg11.dtd">
<svg version="1.1" id="Layer_1" xmlns="http://www.w3.org/2000/svg" xmlns:xlink="http://www.w3.org/1999/xlink" x="0px" y="0px"
	 width="100%" height="100%" viewBox="0 0 100 50" style="enable-background:new 0 0 100 50;" xml:space="preserve">
<g>
	<path d="M8.1,8.6v10.2c1.1-1.6,2.7-2.4,4.8-2.4c4,0,6.1,2.7,6.1,7v12.2h-4.8V24.5c0-2.3-0.9-3.4-2.7-3.4c-2,0-3.3,1.6-3.3,4.6v9.9
		H3.4v-27H8.1z"/>
	<path d="M35.9,23.3v12.3h-4.1l-0.3-2.3c-1.2,1.8-3,2.7-5.4,2.7c-3.4,0-5.7-2.1-5.7-5.4c0-3.4,2.1-5,5.8-5.6l4.8-0.9v-0.7
		c0-1.9-0.9-2.8-2.6-2.8c-1.6,0-2.8,1-2.8,2.5H21c0.3-3.9,3.1-6.6,7.5-6.6C33.1,16.5,35.9,18.9,35.9,23.3z M31.1,27.4l-3.7,0.8
		c-1.4,0.3-2.1,1-2.1,2.1c0,1.1,0.8,1.9,2.2,1.9c1.3,0,2.3-0.6,3-1.7c0.4-0.7,0.7-1.5,0.7-2.5V27.4z"/>
	<path d="M43.3,8.6v27h-4.8v-27H43.3z"/>
	<path d="M62.9,26.3v1.5H49.8c0.1,2.5,1.9,4.2,4.5,4.2c2,0,3.2-0.7,3.8-2.2h4.7c-1.2,4-4.1,6.3-8.6,6.3c-2.8,0-5-0.9-6.8-2.7
		c-1.7-1.8-2.6-4.2-2.6-7.1c0-2.8,0.9-5.2,2.6-7c1.7-1.9,4-2.8,6.7-2.8C59.4,16.5,62.9,19.9,62.9,26.3z M58,24.4
		c0-2.4-1.6-3.9-4-3.9s-4,1.6-4.2,3.9H58z"/>
	<path d="M80.3,23.5v12.2h-4.8V24.5c0-2.3-0.9-3.4-2.7-3.4c-2,0-3.3,1.6-3.3,4.6v9.9h-4.8V16.9h4.1l0.4,2.4c1-1.9,2.7-2.8,5.1-2.8
		C78.2,16.5,80.3,19.2,80.3,23.5z"/>
	<path d="M97.3,23.3v12.3h-4.1l-0.3-2.3c-1.2,1.8-3,2.7-5.4,2.7c-3.4,0-5.7-2.1-5.7-5.4c0-3.4,2.1-5,5.8-5.6l4.8-0.9v-0.7
		c0-1.9-0.9-2.8-2.6-2.8c-1.6,0-2.8,1-2.8,2.5h-4.7c0.3-3.9,3.1-6.6,7.5-6.6C94.4,16.5,97.3,18.9,97.3,23.3z M92.4,27.4l-3.7,0.8
		c-1.4,0.3-2.1,1-2.1,2.1c0,1.1,0.8,1.9,2.2,1.9c1.3,0,2.3-0.6,3-1.7c0.4-0.7,0.7-1.5,0.7-2.5V27.4z"/>
</g>
<g>
	<path d="M56.9,43.4C56.8,43.5,56.9,43.5,56.9,43.4c-0.1,0.1-0.5-0.1-0.6,0.2c-0.1-0.1-0.2-0.1-0.4,0c0,0,0-0.1,0-0.1
		c-0.1,0.1-0.1,0.1-0.1,0.2c-0.1,0-0.2-0.1-0.3-0.2c-0.1,0,0,0.1-0.1,0.2c-0.1,0-0.2,0-0.2-0.2c-0.4,0.1-0.9,0-1.1,0.3
		C54,44,54,43.7,53.8,43.8c-0.1,0,0,0.1,0,0.2c-1.1,0.1-2.1,0.5-3.1,0.4c-0.1,0,0,0.1,0,0.1c-0.4-0.1-1,0.1-1.4,0.1
		c-0.1,0.1-0.2,0.3-0.3,0.3c-0.3-0.1-0.3,0.1-0.4-0.2c0,0,0,0-0.1,0.1c-0.1,0,0.1,0.1,0.1,0.2c-0.3-0.1-0.4-0.1-0.7,0c0,0,0,0,0-0.1
		c-0.1,0,0,0.1-0.1,0.2C47.4,45,47.5,45,47.4,45c-0.2,0.1,0,0.3-0.1,0.3c-0.4-0.3-1,0-1.3,0c-0.2,0.1-0.4,0.2-0.7,0.3
		c0-0.2-0.6,0-0.7,0.1c-0.1-0.1-0.2-0.1-0.3-0.1c0-0.2,0.5,0,0.6-0.2c-0.2,0-0.6,0.1-0.8,0.1c0,0.1,0.1,0.1,0.1,0.1
		c-0.4,0.2-0.9,0.2-1.3,0.5c-0.7-0.1-0.9,0.1-1.7,0.3c0-0.1,0.1-0.1,0.1-0.1c0.1,0.1,0.1,0,0.3,0c0-0.1-0.1-0.1-0.1-0.3
		c-0.2,0-0.1,0.2-0.2,0.3c-0.1,0-0.1,0-0.2,0c-0.1,0.5-0.9,0.2-1.1,0.6c-0.3,0-0.5,0-0.7,0c-0.1-0.1,0.1-0.1,0.1-0.3
		c0-0.1-0.1,0-0.2,0c0,0.1-0.2,0.3,0,0.3c0,0.1-0.1,0-0.2,0c0,0.1-0.1,0.3-0.2,0.2c0-0.1,0-0.1,0.1-0.1c-0.1-0.4-0.9,0.3-1,0
		c-0.5,0.3-0.7,0.3-1.2,0.4c-0.1,0,0,0.1,0,0.1c-0.7,0.1-1.4,0.4-2.2,0.6c-0.2-0.2-0.6,0.1-0.9,0.1c0.2-0.2,0.7-0.6,0.9-0.5
		c0-0.2,0.3-0.2,0.4-0.3c0.1,0,0,0.1,0,0.2c0.6-0.1,0.9-0.3,1.4-0.4c0-0.1-0.1-0.1,0-0.1c0.1,0,0,0.1,0.1,0.1
		c1.8-0.8,3.8-1.1,5.5-1.8c0.4,0.1,1.1-0.2,1.6-0.3c0.1,0,0.1,0,0.1,0.1c0.2,0,0-0.2,0.2-0.1c-0.1,0.1,0.1,0.2,0,0.4
		c0,0.1,0.2-0.1,0.2-0.2c0-0.1-0.1,0-0.2-0.1c0-0.1,0.2-0.1,0.1-0.2c0.3,0.1,0.5-0.1,0.7,0c0,0.2-0.2,0.1-0.2,0.2
		c0.2,0,0.6,0,0.8-0.1c-0.2-0.1-0.3,0-0.5-0.1c0.2-0.2,0.6-0.3,1-0.2c0.3-0.2,1-0.4,1.3-0.3c-0.1,0-0.3,0.1-0.3,0.2
		c0.3,0.1,0.6-0.1,0.9-0.1c-0.1-0.1-0.3-0.1-0.4,0c-0.3-0.3,0.7-0.2,0.6,0c0.1,0,0.1-0.1,0.1-0.3c0.7,0,1.7-0.5,2.3-0.3
		c0.1,0,0.1-0.2,0.1-0.2c1,0,1.9-0.6,2.7-0.3c0.1-0.1-0.1-0.1,0-0.1c0.2,0,0.3,0,0.6-0.1c0,0.1-0.3,0-0.2,0.3c0-0.1,0.3-0.1,0.3-0.4
		c1-0.1,1.6-0.4,2.4-0.2c0.1,0,0-0.1,0-0.1c0.1-0.1,0.1,0.1,0.2,0.1c0.3-0.3,0.9-0.3,1.6-0.3c0,0,0-0.1,0.1-0.1
		c0.9-0.2,2.1-0.1,2.9-0.3c0.1,0,0.4-0.1,0.6,0c1.1-0.3,2-0.1,3-0.4c-0.5-0.1-1,0.1-1.6,0.1c-2.7,0.3-5.3,0.4-7.7,0.9
		c-0.9,0-1.6,0.1-2.1,0.3c-0.6-0.1-1,0.1-1.6,0.1c-0.1-0.2,0.3-0.1,0.3-0.3c0.1,0,0,0.1,0,0.1c0.4,0,1-0.4,1.3-0.2
		c0.1-0.1,0.1,0,0.1-0.2c0.3,0.1,1,0.1,1.2-0.1c0,0,0,0.1,0,0.1c0.2-0.1,0.6,0,0.6-0.2c0.1,0.1,0.6,0.1,0.8,0c0.2,0,0.7,0.1,0.8-0.2
		c0.1,0,0.2,0.1,0.4,0c0.1,0-0.1-0.1,0-0.1c0,0,0.1,0,0.1,0c0.1,0,0.1,0.1,0,0.2c0.2,0,0.2-0.2,0.3-0.2c0,0.1-0.1,0.1-0.1,0.1
		c0.4-0.1,0.7,0,1-0.3c0,0.1-0.1,0.2,0.1,0.1c0.1,0,0-0.1,0.1-0.1c0.1,0,0.1,0.1,0.3,0.1c-0.1-0.3,0.7,0.3,0.9-0.2
		c0.5,0.2,1-0.1,1.4,0c0-0.2-0.3,0-0.4-0.1c0.2-0.1,0.3-0.1,0.5-0.1c0,0.1,0,0.1,0.1,0.2c0.1,0,0.3-0.2,0.4,0c0.1,0,0-0.1,0-0.2
		c0.3,0,0.3,0.3,0.6,0.1c0-0.1-0.1,0-0.2-0.2c0.1,0,0.2,0,0.3,0c0,0.1-0.1,0.1-0.1,0.2c0.1,0,0.1-0.1,0.2-0.1c0.3,0.3,0.4,0,0.8,0.1
		c0.1-0.1-0.1,0-0.1-0.2c0.1,0,0.2,0,0.3,0c-0.3-0.1-1-0.1-1.5-0.1c0-0.1,0-0.1,0.1-0.2c-0.1-0.1-0.1,0.3-0.2,0
		c-0.1,0.1-0.3,0.1-0.2,0.2c-0.4-0.1-0.9,0.2-1.1,0c0-0.1,0-0.1,0-0.1c-0.1,0-0.1,0-0.3,0c-0.1,0,0,0.1-0.1,0.2
		c-0.6,0.2-1.1,0-1.8,0.1c-0.3,0-0.5,0-0.8,0c0-0.2,0.1-0.1,0.2-0.1c-0.1-0.1-0.2-0.1-0.3-0.1c-0.1,0,0,0.1,0,0.2
		c-0.7,0-1.4,0.3-1.9-0.1c-0.3,0.4-0.9,0.1-1.2,0.3c0-0.1-0.1-0.2,0-0.2c-0.1-0.1-0.3,0-0.5,0c0,0.1,0.1,0,0.2,0.1
		c-1.4,0.3-2.4,0.1-3.4,0.3c0,0,0-0.1,0-0.1c-0.1,0-0.1,0-0.1,0.1c-0.1-0.1-0.2-0.1-0.1-0.3c-0.4,0.4-0.7,0.4-1.2,0.3
		c0-0.1,0.1-0.1,0.1-0.2c-0.2,0.1-0.4,0-0.5,0.2c-0.1,0-0.1-0.1-0.2-0.1c-0.1,0-0.1,0.2-0.2,0.3c0,0-0.2-0.1-0.1,0
		c-0.1,0-0.1-0.1-0.1-0.2c-0.1,0,0,0.2-0.1,0.2c-0.5,0.1-0.9-0.1-1.2,0.1c0,0-0.3-0.2-0.1-0.2c-0.1-0.1-0.3,0-0.5,0
		c0,0.1,0.2,0,0.3,0c-0.1,0.2-0.7,0.4-0.9,0.2c-0.4,0.3-1.1,0-1.5,0.2c-0.1,0-0.1-0.3-0.3-0.2C43.8,42,44.1,42,44,42.1
		c-0.2,0-0.5,0.2-0.6,0c0-0.2,0.2-0.1,0.3-0.1c0-0.1-0.4-0.1-0.4,0.1c-0.1,0-0.4,0.2-0.7,0.2c-0.7-0.1-1.3,0.2-2.2,0.3
		c0-0.1,0-0.1,0-0.3c-0.1,0-0.1,0.1-0.1,0.1c-0.1-0.1-0.1,0-0.2,0c0,0-0.1-0.1-0.1-0.1c-0.1,0-0.1,0.1-0.1,0.2
		c-0.5,0.2-1.1,0.2-1.4,0c-0.4,0.5-0.9,0.1-1.3,0.4c-0.1-0.1-0.2-0.1-0.3-0.1c0.1,0.2-0.3,0-0.5,0.2c0-0.1,0.1-0.1,0.1-0.2
		c-0.1,0,0,0.2-0.2,0.1c-0.1,0.1,0.1,0.2,0,0.2C36,43.1,36,43,35.7,43c0,0,0,0.1,0,0.1c-0.2,0.1-0.6,0.2-0.9,0.1
		c-0.7,0.1-1.5,0.4-2.2,0.4c-0.1,0.1-0.8,0.3-1,0.2c0,0-0.1,0.1-0.1,0.1c-1.2,0.2-2.1,0.3-3.3,0.7c-0.6,0-1.4,0.3-1.9,0.3
		c-0.1,0-0.1,0.1-0.2,0.1c-0.8,0.1-1.9,0.4-2.8,0.5c-0.6,0.1-1.1,0-1.6-0.1c-0.5-0.3-0.5-0.7-0.4-1.2c0.2-0.3,0.6-0.2,1-0.4
		c0.1,0,0,0.1,0.1,0.1c0.8-0.3,1.7-0.4,2.5-0.7c1.2-0.2,2.4-0.4,3.8-0.7c2.6-0.4,5.7-1,8-1.3c0.1,0,0.2,0,0.3,0.1c0.1,0,0,0,0-0.1
		c0.9-0.1,2.3-0.3,3.3-0.4c0.1,0,0.1,0.1,0.1,0.2c0.1-0.1,0-0.1,0-0.2c1.6-0.2,2.8-0.4,4.3-0.5c0,0,0.1,0,0.1,0.1
		c0.3-0.2,0.5-0.1,0.7-0.1c0.8-0.4,1.5,0,2.4-0.3c0,0.1,0,0.1,0,0.2c0.5-0.4,1.1,0,1.8-0.3c0.1,0,0.1,0.1,0.3,0.2
		c0.1,0,0-0.1,0.1-0.1c0.7,0,1.1-0.2,1.6,0c0.3-0.3,1.1-0.1,1.4-0.1c0.1,0,0.1-0.1,0.1-0.1c0.9,0,1.2-0.1,2.1-0.1
		c0.2,0,0.3-0.1,0.4,0.1c0.1-0.1,0.2-0.1,0.3-0.1c0.1,0,0.1,0.3,0.3,0.2c0-0.1-0.1,0-0.1-0.2c1,0,2.1-0.2,3.1,0
		c0.7-0.1,1.4-0.1,2.2-0.1c0.1,0.1-0.1,0.1,0,0.2c0.1,0,0.1-0.1,0.3-0.2c0.2,0.1,0.3,0,0.4,0.1c0.1-0.1,0-0.2,0.3-0.2
		c0,0.1,0.1,0.2,0.1,0.3c0.3,0,0.3-0.1,0.5,0c-0.1-0.3-0.2,0-0.5-0.1c0.6-0.3,0.9,0,1.7-0.2c0.1,0.1,0,0.1,0,0.3
		c0.1,0,0.1-0.1,0.1-0.2c1,0,2.1-0.1,3.2-0.1c0.1,0,0.1,0.2,0.1,0.2c0.1-0.1,0.1-0.2,0.2-0.2c0.4,0.1,0.8-0.2,1.1,0.1
		c0,0,0-0.1,0-0.1c1.2,0,2.4-0.1,3.4,0c0,0.1,0,0.1,0,0.2c0.5-0.4,1.3,0,2-0.2c0.1,0.1,0,0.1,0,0.2c0.2-0.3,0.7-0.3,0.9-0.1
		c0.8-0.1,1.5-0.1,2.2-0.1c0.1,0,0.3,0,0.3,0c-0.1,0,0.2,0.1,0.1,0.1c0.1,0,0.4-0.1,0.6-0.1c0,0.1,0.1,0.1,0.1,0.1
		c1.1-0.1,2.4,0.1,3.5,0.3c0,0.3,0.3,0.2,0.4,0.5c-0.1,0.1-0.3-0.1-0.4,0c0,0.3,0.5,0.2,0.6,0.4c0.1,0.1-0.1,0.1-0.1,0.2
		c0.1,0.1,0.2,0.1,0.2,0.2c0,0.1,0,0.3-0.1,0.2c0,0.1,0.1,0.1,0.1,0.3c-0.2,0-0.1,0-0.2,0.1c-0.1,0-0.1-0.1-0.2-0.1
		c-0.5,0.4-1.2,0.3-1.6,0.1c-0.8,0.5-1.6,0.1-2.4,0.2c-0.1,0-0.1-0.1-0.2-0.1c-0.3,0.1-1,0.1-1.3,0c-0.2,0.1-0.6,0.1-0.7,0
		C75.3,42.1,74,42,73,42.2c-0.1-0.3-0.7,0.1-1-0.1c-0.4-0.1-0.8,0.3-1.2,0c-0.1,0-0.1,0.1,0,0.1c-0.5,0-0.8,0-1.4,0
		c-0.1,0.1,0.1,0.1,0,0.2c-0.3,0-0.5,0-0.8,0c-0.1,0,0,0.1,0,0.1c-0.1-0.1-0.2-0.1-0.3-0.2c-0.1,0.1-0.3,0.2-0.4,0
		c0,0.1-0.1,0.2-0.1,0.2c-0.1,0-0.1-0.2-0.3-0.2c-0.1,0.1-0.1,0.1-0.1,0.2c-0.3,0-0.6-0.2-0.9,0c0.1-0.2-0.1,0-0.3,0
		c-0.5-0.1-1.6,0-2.1,0.1c-0.7-0.2-1.1,0.3-1.6,0.1c0,0,0,0.1-0.1,0.1c0,0,0-0.1,0-0.1c-0.6,0.1-1.3,0.3-1.7,0.1
		c-0.1,0-0.1,0.1-0.2,0.2c-0.5-0.1-1.2,0.2-1.7,0.1c-0.3,0.1-0.7,0.2-1.1,0.2c0,0-0.1,0.1-0.1,0.1C57.4,43.3,57,43.3,56.9,43.4
		C56.9,43.4,56.9,43.4,56.9,43.4z M31.2,42.8 M33,42.5c0-0.1-0.3-0.1-0.3,0C32.9,42.5,32.9,42.5,33,42.5z M65.6,40.1
		c4-0.1,8.4,0,12.6,0.1c0.1,0,0-0.2,0.2-0.2c0.1,0.1-0.1,0.2,0.1,0.2c0.6-0.1,0.9-0.1,1.3-0.1c-2.2-0.4-4.6-0.1-7-0.4
		c-1,0.1-1.9,0.1-2.6,0c-0.8,0.1-1.6,0.1-2.5,0c-2.1,0.2-4.7,0.1-6.4,0.1c-0.8,0.1-2.2,0.1-3.4,0.1c-0.5,0.1-0.9,0-1.3,0.1
		c-7.4,0.4-14.1,0.7-21.3,2.1c-0.1,0-0.2-0.1-0.4,0c-0.4,0.3-1.3,0.1-1.6,0.4c2.6-0.4,5.4-0.7,8.2-1.2c1,0.1,2-0.2,3-0.1
		c0.1-0.1,0.1-0.1,0.3-0.2c0.6,0.1,1.5,0,2.2-0.1c1.1-0.1,2.1-0.1,3.3-0.2c1.9-0.1,4-0.3,5.4-0.2c0.3,0,0.4-0.1,0.6,0
		c2.9-0.3,5.9-0.2,9.1-0.3C65.5,40.1,65.6,40.1,65.6,40.1z M35.1,47.3c0,0.1,0.1,0.1,0,0.2C34.9,47.6,35,47.2,35.1,47.3
		C35.2,47.3,35.2,47.3,35.1,47.3z M35.7,47.2c-0.3-0.1-0.2,0.1-0.4,0.1c0-0.1,0.1-0.2,0.1-0.3c0.1,0,0.1-0.1,0.3,0
		C35.6,47.1,35.7,47.1,35.7,47.2z M35.9,47.2c-0.3,0.1-0.1-0.1-0.2-0.2C35.8,46.9,35.9,47.1,35.9,47.2z M37.9,46.2
		c0.1,0,0-0.2,0.1-0.1c0.2-0.1,0,0,0,0.1c0.1,0,0.1,0,0.3,0c-0.1,0.1,0,0.1,0,0.2c-0.1,0-0.3-0.1-0.3,0.1c-0.1,0-0.1,0-0.1,0
		c-0.1,0.1-0.1,0.3-0.4,0.3c0-0.1-0.1-0.1-0.1-0.2c-0.1,0-0.3,0.1-0.1,0.1c-0.1,0.3-0.6,0.2-0.7,0.4c0,0,0,0-0.1,0
		c0-0.1,0.1-0.1,0-0.2c-0.1,0.1-0.2,0.1-0.2,0.3c-0.1,0-0.1,0-0.1,0.1c-0.1-0.1,0.2-0.1,0-0.3c0.7-0.3,1.1-0.4,1.5-0.6
		c0.2,0.1-0.2,0.1-0.1,0.4c0,0,0.2-0.1,0.1-0.1C37.6,46.2,37.8,46.4,37.9,46.2C37.8,46.2,37.8,46.2,37.9,46.2z M36.3,43.1
		 M36.6,46.8C36.6,46.8,36.6,46.8,36.6,46.8c0.1,0,0.1-0.1,0.1-0.1c0,0,0,0,0-0.1c0,0-0.1,0-0.1,0C36.6,46.7,36.6,46.7,36.6,46.8
		C36.5,46.8,36.6,46.8,36.6,46.8z M36.6,42.8 M37,46.5c-0.1,0-0.1,0-0.2,0.1C36.9,46.7,37,46.7,37,46.5z M37.1,47.1
		c0,0-0.2,0-0.2,0.1C37,47.2,37.1,47.2,37.1,47.1z M36.9,42.8 M37.8,46.2 M39.1,45.8c0,0.1,0.1,0.1,0.2,0s0,0.1,0,0.2
		c-0.2,0.1-0.5-0.2-0.6,0.1c-0.2,0-0.2-0.1-0.4,0c0-0.1,0-0.1,0-0.2c0.3-0.1,0.7-0.4,1-0.3C39.4,45.7,39.1,45.7,39.1,45.8z
		 M38.4,47.3c0-0.1,0.1-0.2,0.2-0.3C38.6,47.1,38.6,47.2,38.4,47.3z M38.6,46.3c0-0.1,0-0.1,0.1-0.1C38.7,46.2,38.6,46.3,38.6,46.3z
		 M38.9,45.9c0,0-0.3,0-0.3,0.1C38.7,46,38.9,46,38.9,45.9z M38.9,46.7c0-0.1-0.1-0.1-0.2-0.1c0,0,0,0.1,0,0.1
		C38.8,46.7,38.9,46.7,38.9,46.7z M38.8,46.9 M39,46.8 M42.4,44.7c0,0.1-0.1,0.1-0.2,0.2c0.1,0,0.5,0,0.4-0.3c0.1,0,0.1-0.1,0.2,0
		c0,0.1-0.1,0-0.1,0.1c0.1,0.1,0.2-0.1,0.3-0.1c0.2,0.1,0.6,0.1,0.5-0.2c0.1,0,0.3-0.1,0.4,0c0,0.1-0.3,0-0.3,0.2
		c0.1,0.1,0.3,0,0.4-0.1c0,0.1,0,0.1,0,0.1c0,0.1-0.3,0-0.3,0.2c-0.2-0.2-0.4,0.1-0.6,0.1c-0.1,0-0.1,0-0.3,0
		c-0.3,0-0.5,0.2-0.8,0.3c-0.5,0-0.7,0.3-1.2,0.3s-0.7,0.2-1.1,0.3c-0.1,0,0,0.1,0,0.1c-0.1,0-0.1,0-0.1,0.1c0-0.2-0.1,0-0.2-0.2
		c0.2,0,0.1-0.1,0.3,0c0-0.1,0-0.1-0.1-0.1c0.1-0.1,0.1,0.1,0.2,0c0.1,0,0-0.1,0-0.2c0.1,0,0.3,0,0.3-0.1c0.1,0,0.1,0,0.1,0.1
		c0.3,0,0.4-0.1,0.6-0.2c-0.1-0.1-0.4,0.2-0.5,0c0.1-0.1,0.4-0.2,0.7-0.2c0,0.1-0.1,0.1-0.2,0.2c0.2,0,0.6-0.1,0.8-0.3
		C42,45.1,42.1,44.6,42.4,44.7z M39.5,46.8c0,0,0-0.1,0-0.1c0,0,0,0-0.1,0C39.4,46.8,39.4,46.8,39.5,46.8
		C39.5,46.8,39.5,46.8,39.5,46.8z M39.5,45.6 M39.6,46.7c0,0.1,0,0.1,0.1,0.1C39.7,46.8,39.6,46.7,39.6,46.7z M39.9,46.2
		c-0.1,0-0.3,0-0.3,0.1C39.7,46.3,39.8,46.3,39.9,46.2z M39.6,42.4c0,0.1,0.2,0,0.1,0C39.7,42.3,39.6,42.3,39.6,42.4z M40.1,46.5
		c0-0.1-0.1-0.1-0.3-0.1c0,0.1,0,0.1,0,0.2C40,46.6,40,46.5,40.1,46.5z M40.1,46.3c0-0.1,0.1-0.1,0.1-0.2c-0.1,0-0.1,0.1-0.3,0.1
		C40,46.2,40,46.3,40.1,46.3z M40.2,45.4c-0.1,0-0.3,0-0.2,0.1C40.1,45.5,40.2,45.5,40.2,45.4z M40.1,46.7 M40.3,42.5 M40.3,46.1
		C40.3,46.1,40.3,46.1,40.3,46.1C40.3,46,40.3,46.1,40.3,46.1z M40.6,46.4c-0.1,0-0.2,0-0.2,0.1C40.4,46.5,40.6,46.6,40.6,46.4z
		 M40.6,46 M40.7,46.2c-0.1,0-0.2,0.1-0.1,0.1C40.7,46.2,40.8,46.2,40.7,46.2z M40.7,45.5 M40.9,45.9c0,0-0.1,0-0.1,0c0,0,0,0,0,0.1
		C40.8,46,40.9,46,40.9,45.9z M41,46.4c-0.1,0-0.3,0-0.3,0.1C40.8,46.4,41,46.5,41,46.4z M40.9,46.1 M41,45.8c0,0.1-0.2,0.2,0,0.2
		C41,46,41.1,45.8,41,45.8z M41,46.1c0,0.1,0.2,0.1,0.3,0.1C41.2,46.1,41.1,46,41,46.1z M41.3,46c0-0.2,0.1-0.2,0.1-0.1
		c0-0.1,0.1-0.1,0.1-0.2c-0.1,0-0.3,0.1-0.4,0.2C41.3,45.8,41.1,46.1,41.3,46z M41.7,45.7c-0.1,0-0.1,0-0.1,0c0,0.1,0.1,0.2,0.1,0.2
		C41.7,45.8,41.7,45.8,41.7,45.7z M42,46.1c0-0.2-0.4-0.1-0.3,0.1C41.9,46.2,41.9,46.2,42,46.1z M41.9,42.1c0,0-0.2,0-0.2,0.1
		C41.8,42.2,41.9,42.2,41.9,42.1z M41.7,45 M42.1,45.7c0,0,0-0.1,0-0.1c-0.1,0-0.1,0-0.1,0C42,45.6,42,45.6,42.1,45.7
		C42.1,45.7,42.1,45.7,42.1,45.7z M42.1,45.8 M42.4,46c-0.1,0-0.1,0-0.2,0c0,0,0,0,0,0.1C42.3,46.1,42.5,46.1,42.4,46z M42.7,45.5
		c0.1-0.2-0.2-0.1-0.2,0C42.6,45.5,42.6,45.5,42.7,45.5z M42.6,42.2 M42.8,45.9 M42.9,41.7 M42.9,45.4 M43.1,42.2 M43.3,41.7
		 M43.3,44.4 M43.6,45.7c0.1-0.1,0.2,0,0.2-0.1c-0.2,0-0.2-0.1-0.3-0.2c0,0.1,0-0.1-0.1,0c0,0-0.1,0.1,0,0.1
		C43.6,45.4,43.5,45.8,43.6,45.7z M43.5,45.8C43.5,45.7,43.5,45.7,43.5,45.8c0-0.1-0.1-0.1-0.1-0.1c0,0,0,0,0,0.1
		C43.4,45.8,43.5,45.8,43.5,45.8z M43.4,41.7 M46.1,43.9C46,44,46.3,44,46.2,44.2c-0.1,0-0.1,0.1-0.1,0c-0.1-0.2-0.5,0-0.6,0.1
		c-0.5-0.1-0.7,0.3-1.1,0.3c0-0.1,0-0.1,0-0.1c-0.1,0-0.1,0.1-0.3,0.1c0-0.1,0-0.1-0.1-0.3c0.2,0.1,1.1,0.1,1.3-0.2
		c0.3,0.1,0.3-0.1,0.7-0.1c0,0,0-0.1,0-0.1C46.1,44,46,44,46.1,43.9z M44,45.2c0,0.1-0.1,0.1,0,0.1C44,45.3,44.1,45.2,44,45.2z
		 M44.2,45.2c0,0,0,0.1,0,0.1c0.2-0.1,0.1-0.2,0.2-0.3C44.2,45,44.2,45,44,45C44,45.2,44.2,45.1,44.2,45.2z M44.4,44.2 M44.8,42
		c0,0-0.1,0.1-0.1,0.1C44.7,42.1,44.8,42,44.8,42z M44.7,41.4 M44.7,44.1 M44.9,41.9 M45,41.6C45,41.6,45,41.6,45,41.6
		C45,41.5,45,41.5,45,41.6z M45.1,45.3c-0.1,0-0.1,0.1-0.2,0c0,0,0,0.1,0,0.1C45.1,45.4,45.2,45.4,45.1,45.3z M45.1,41.4 M45.1,41.8
		C45.1,41.8,45.1,41.8,45.1,41.8C45.1,41.8,45.1,41.8,45.1,41.8z M45.3,41.8 M45.7,44.7c-0.1,0-0.1,0-0.4,0
		C45.3,44.9,45.7,44.9,45.7,44.7z M45.6,45.2c0-0.1-0.2,0-0.2,0.1C45.4,45.3,45.5,45.3,45.6,45.2z M45.4,41.8 M45.6,41.3
		c0.1,0,0.1,0.1,0.1,0C45.6,41.3,45.6,41.3,45.6,41.3z M46,45.1c-0.1,0.1-0.3,0-0.4,0.2C45.8,45.1,46,45.3,46,45.1z M45.7,41.7
		c0.1,0,0.1,0.1,0.2,0C46,41.7,45.7,41.7,45.7,41.7z M46.5,41.2c-0.1,0-0.6-0.1-0.7,0.1C46.1,41.3,46.4,41.3,46.5,41.2z M46,44.6
		c-0.1,0.1-0.1,0.2,0.1,0.1C46,44.6,46,44.6,46,44.6z M46.1,41.5 M46.2,41.7 M46.5,45c-0.1,0-0.2,0.1-0.3,0.1
		C46.3,45.1,46.5,45.1,46.5,45z M46.7,44.5c-0.1,0-0.1-0.1-0.3,0c0.1,0.1-0.1,0.1-0.2,0.1C46.3,44.8,46.5,44.6,46.7,44.5z
		 M46.4,41.1c0.1-0.1-0.1-0.1-0.1,0C46.3,41,46.3,41,46.4,41.1C46.3,41.1,46.3,41.1,46.4,41.1z M46.3,41.5 M46.4,41 M46.5,41.9
		 M46.5,45.3c0-0.1,0.1-0.1,0.2-0.1C46.7,45.4,46.6,45.3,46.5,45.3z M46.5,41.5 M46.7,43.7c0.1,0.1-0.2,0.3-0.1,0.1
		C46.6,43.8,46.7,43.7,46.7,43.7z M46.8,41.1c-0.1,0-0.3-0.1-0.2,0.1C46.7,41.2,46.8,41.2,46.8,41.1z M46.6,41.4
		c0.1,0,0.1,0.1,0.1,0C46.7,41.4,46.7,41.4,46.6,41.4z M46.6,44 M46.8,44c0-0.1,0.1-0.1,0.1,0.1C46.9,44,46.9,44,46.8,44z M46.8,41
		 M46.9,45 M47,41.2 M47.1,43.7c0-0.1,0.3-0.3,0.4-0.1C47.3,43.6,47.2,43.6,47.1,43.7z M47.2,41.4 M47.6,43.8 M47.8,45 M48.3,43.5
		c-0.1-0.1,0.1-0.2,0.2-0.1C48.5,43.5,48.2,43.4,48.3,43.5z M48.2,44.1c0.1,0.1,0.1,0.1,0.1,0.2C48.3,44.2,48.2,44.2,48.2,44.1z
		 M48.4,41C48.4,41,48.4,41,48.4,41c-0.1,0-0.1,0-0.1,0.1C48.4,41.1,48.4,41.1,48.4,41z M48.4,40.9c0,0.1,0.2,0,0.1-0.1
		S48.4,40.8,48.4,40.9z M48.6,43.3C48.6,43.3,48.6,43.4,48.6,43.3c0,0.1,0,0.1-0.1,0.1C48.5,43.4,48.5,43.4,48.6,43.3
		C48.5,43.3,48.6,43.3,48.6,43.3z M48.6,41.1 M48.7,41.7c-0.1,0,0-0.1,0-0.2C48.8,41.6,48.6,41.7,48.7,41.7z M48.8,44.3
		c0-0.1,0-0.1,0-0.2c-0.1,0-0.1,0-0.2,0C48.6,44.3,48.7,44.3,48.8,44.3z M48.8,44.8c0-0.1,0.1-0.2,0.2-0.3c-0.1,0-0.2-0.1-0.4,0
		C48.8,44.7,48.8,44.7,48.8,44.8z M48.7,43.6C48.7,43.5,48.7,43.6,48.7,43.6C48.9,43.4,48.7,43.8,48.7,43.6z M48.9,43.4
		c0-0.1,0.1-0.1,0.1-0.1C49,43.3,49,43.4,48.9,43.4z M49,43.5 M49.2,43.6c0-0.1-0.1-0.1-0.1-0.2c0.2-0.1,0.1,0.2,0.3,0.1
		C49.3,43.6,49.3,43.6,49.2,43.6z M49.2,43.3c-0.1,0,0-0.2,0.1-0.1C49.3,43.3,49.2,43.2,49.2,43.3z M49.2,41 M49.5,41.2
		c-0.1,0.1-0.2-0.1-0.3,0C49.2,41.4,49.6,41.3,49.5,41.2z M49.2,44 M49.3,41 M49.4,44.1c0,0,0-0.1,0-0.1c0,0-0.1,0-0.1,0
		c0,0,0,0.1,0,0.1C49.3,44.1,49.4,44.1,49.4,44.1z M49.5,43.5c0,0.1-0.1,0.1-0.1,0.1S49.4,43.4,49.5,43.5z M49.4,44.4 M49.5,41
		 M49.5,43.9c0.1,0,0.2,0.3,0.4,0.1C49.9,43.8,49.5,43.8,49.5,43.9z M49.5,44.1 M49.6,43.4 M49.6,44.3c0.1,0.3,0.3,0,0.4,0
		C50,44.2,49.7,44.4,49.6,44.3z M49.8,40.9c-0.1,0-0.1,0-0.1,0.1C49.8,41,49.8,41,49.8,40.9z M49.8,43.5c0,0-0.1-0.1-0.1-0.1
		c0-0.1,0.2-0.1,0.2-0.1C49.9,43.5,49.9,43.5,49.8,43.5z M49.8,43.2 M49.9,44.1 M50,43.2 M50,40.9 M50.2,43c0,0,0,0.1,0,0.1
		c0,0-0.1,0-0.1,0c0,0,0,0-0.1,0c0,0,0-0.1,0-0.1c0,0,0,0,0,0C50.1,43,50.2,43,50.2,43z M50.2,43.4c-0.2,0,0-0.2,0.1-0.2
		C50.3,43.2,50.2,43.2,50.2,43.4z M50.2,41.2 M50.3,40.1 M50.3,43.4 M50.5,43.4c0-0.1-0.2-0.1-0.2-0.3c0.3,0,0.4,0.1,0.9,0
		C51.1,43.1,50.7,43.2,50.5,43.4z M50.5,44.2c0,0,0-0.1,0-0.1c-0.1,0-0.1,0.1-0.2,0.2C50.4,44.3,50.4,44.3,50.5,44.2z M50.8,43.7
		C50.8,43.8,50.8,43.8,50.8,43.7C50.8,43.8,50.8,43.7,50.8,43.7c0,0-0.1-0.1-0.1-0.1c0,0.2-0.1,0-0.1,0c0,0.1-0.1,0.1-0.1,0.2
		C50.5,43.8,50.6,43.8,50.8,43.7z M50.4,41.1 M50.5,43.2 M50.7,41.1c-0.1,0-0.1,0-0.1,0c0,0,0,0.1,0,0.1
		C50.7,41.2,50.8,41.1,50.7,41.1z M51,41.3c-0.1-0.1-0.3,0-0.3,0.1C50.8,41.4,50.9,41.4,51,41.3z M51.2,40.7
		c0.1,0.2-0.2,0.1-0.1,0.2C51.2,40.9,51.4,40.7,51.2,40.7z M51.3,43.8c0,0,0-0.1,0-0.1c0,0-0.1,0-0.1,0
		C51.2,43.7,51.2,43.7,51.3,43.8C51.2,43.8,51.3,43.8,51.3,43.8z M51.5,42.9c0,0.1,0,0.1,0,0.2c-0.1-0.1-0.1,0-0.3,0
		c0-0.1,0.1-0.1,0.1-0.3C51.4,42.9,51.4,43,51.5,42.9z M51.4,40.8c0,0,0.1,0.1,0.2,0C51.6,40.8,51.3,40.8,51.4,40.8z M51.4,43.8
		 M51.5,41.1C51.5,41.1,51.5,41.1,51.5,41.1c0-0.1-0.1-0.1-0.1-0.1C51.5,41.1,51.5,41.1,51.5,41.1C51.5,41.1,51.5,41.1,51.5,41.1z
		 M51.8,41.1C51.8,41.1,51.8,41.1,51.8,41.1c0-0.1-0.1-0.1-0.1-0.1C51.7,41.1,51.7,41.1,51.8,41.1C51.7,41.1,51.8,41.1,51.8,41.1z
		 M51.8,41.1 M51.8,41.3 M52.1,44C52.2,44,52.2,44,52.1,44C52.2,43.8,52.1,43.8,52.1,44c-0.1-0.1-0.3-0.1-0.3,0
		C52,44,52.1,44,52.1,44C52.1,43.9,52.1,44,52.1,44z M52,41.1 M52,43.5 M52.2,41.3 M52.3,44.1C52.4,44.1,52.4,44.1,52.3,44.1
		C52.4,44,52.3,44,52.3,44.1z M52.5,41.1C52.5,41.1,52.5,41,52.5,41.1C52.4,41,52.4,41,52.4,41c0,0,0,0.1,0,0.1
		C52.4,41.1,52.5,41.1,52.5,41.1z M52.4,43.7 M52.4,41.3 M52.5,43.8 M52.6,41.2 M52.7,41 M52.8,41.2c-0.1,0.1,0.1,0.1,0.1,0
		C52.9,41.2,52.9,41.2,52.8,41.2z M53,43.8C53,43.8,52.9,43.8,53,43.8c0,0-0.1,0-0.1,0.1C53,43.8,53.1,43.8,53,43.8z M53.2,41
		c-0.1,0-0.1,0-0.1,0.1C53.2,41.1,53.2,41,53.2,41z M53.1,43.8 M53.2,42.5C53.2,42.5,53.2,42.5,53.2,42.5c0,0.1,0,0.1-0.1,0.1
		C53.1,42.6,53.1,42.5,53.2,42.5C53.1,42.5,53.1,42.5,53.2,42.5z M53.4,43.1c-0.1,0-0.2,0-0.2,0.1C53.3,43.3,53.4,43.2,53.4,43.1z
		 M53.6,41c-0.1,0.1-0.2-0.1-0.3,0C53.3,41.1,53.6,41.1,53.6,41z M53.4,43.4 M54,41.1c0-0.2-0.2-0.1-0.3-0.1
		C53.7,41.1,53.9,41,54,41.1z M54.1,39.8C54,39.8,53.9,40,54,40C54,39.9,54.1,39.9,54.1,39.8z M54.1,40.5 M54.3,41c0,0,0-0.1,0-0.1
		c0,0-0.1,0-0.1,0c0,0,0,0.1,0,0.1C54.2,41,54.2,41,54.3,41z M54.2,43.1 M54.5,43.7c0-0.1,0-0.1-0.1-0.1c0,0,0,0.1,0,0.1
		C54.4,43.7,54.5,43.7,54.5,43.7z M54.8,43.5C54.8,43.5,54.8,43.5,54.8,43.5C54.7,43.5,54.7,43.5,54.8,43.5
		C54.7,43.5,54.7,43.5,54.8,43.5C54.7,43.5,54.7,43.5,54.8,43.5z M54.7,43 M54.9,43c0,0-0.1,0.2,0,0.2C54.9,43.1,55.1,42.9,54.9,43z
		 M55,43.5 M55.2,43.4C55.2,43.4,55.2,43.4,55.2,43.4C55.2,43.4,55.2,43.4,55.2,43.4C55.2,43.4,55.2,43.4,55.2,43.4
		C55.2,43.4,55.2,43.4,55.2,43.4z M55.4,42.2 M55.6,39.8 M55.7,40.9C55.7,40.9,55.8,40.9,55.7,40.9c0,0,0.1-0.1,0.1,0
		c0,0,0-0.1,0-0.1c0,0-0.1,0-0.1,0c0,0,0,0.1,0,0C55.7,40.8,55.7,40.9,55.7,40.9z M55.8,43.4 M55.9,41 M56.2,40.7
		c0-0.1,0.1-0.1,0-0.2c0,0-0.1,0-0.1,0c-0.1,0.1,0,0.1,0,0.2C56.2,40.7,56.2,40.7,56.2,40.7z M56.4,39.7c-0.1,0.1,0.2,0.1,0.1,0
		C56.5,39.8,56.5,39.7,56.4,39.7z M56.5,40.5 M56.6,43.6 M56.8,42.7c0,0,0-0.1,0-0.1c-0.1,0-0.1,0.1-0.2,0.1
		C56.7,42.8,56.8,42.7,56.8,42.7z M56.8,39.8 M57.1,42.7 M57.2,40.8 M57.5,40.4c-0.1,0-0.2-0.1-0.3,0C57.2,40.7,57.5,40.5,57.5,40.4
		z M57.5,41c0-0.1,0-0.1-0.1-0.1c0,0,0,0.1,0,0.1C57.4,41,57.4,41,57.5,41z M57.4,39.7 M57.7,40.5c-0.1,0,0-0.1-0.1-0.1
		c0,0.1-0.1,0.1-0.1,0.2C57.6,40.6,57.7,40.6,57.7,40.5z M57.8,40.8c0,0-0.2,0-0.1,0.1C57.8,40.9,57.8,40.9,57.8,40.8z M57.7,40.6
		 M58,40.8 M58.2,39.8c0.1,0.1,0.1-0.1,0-0.1c0,0,0,0.1,0,0C58.2,39.7,58.2,39.7,58.2,39.8z M58.2,40.5
		C58.3,40.5,58.3,40.5,58.2,40.5C58.3,40.5,58.2,40.5,58.2,40.5z M58.6,39.7c0-0.1-0.2-0.1-0.2,0C58.5,39.7,58.6,39.7,58.6,39.7z
		 M58.7,41c-0.1,0.2,0.3,0.2,0.3,0.1C58.9,41.1,58.8,41,58.7,41z M59,40.7c-0.1,0-0.1,0-0.1,0.1C58.9,40.8,59,40.8,59,40.7z
		 M58.9,39.7 M59,42.9c0.1,0,0.1,0.1,0.1,0C59.1,42.8,59,42.8,59,42.9z M59,40.8 M59.5,42.9c0-0.2-0.3-0.1-0.3,0
		C59.3,42.9,59.4,42.9,59.5,42.9z M59.5,42.4 M59.9,41.1c0.1,0.1,0.2,0,0.2-0.1C60.1,41,59.9,41,59.9,41.1z M60.1,40.7 M60.3,40.4
		c0.1,0,0.1,0.1,0.2,0C60.6,40.3,60.3,40.3,60.3,40.4z M60.4,41.1 M60.5,40.5 M60.5,40.7 M60.7,41 M61.2,40.6 M61.2,39.6 M61.2,40.3
		c0,0,0.1,0,0.1,0C61.3,40.3,61.2,40.3,61.2,40.3z M61.4,39.6 M61.8,40.7c-0.1,0-0.2,0-0.3,0c0,0,0,0,0,0.1
		C61.6,40.7,61.9,40.8,61.8,40.7z M62.3,40.7c0.1,0.1,0.1,0,0.2,0C62.5,40.6,62.3,40.7,62.3,40.7z M62.4,41 M62.5,40.4 M62.7,42
		c0,0.1,0.1,0.1,0.3,0.1C62.9,42,62.8,42,62.7,42z M62.7,41c0.1,0,0.4,0.1,0.3,0C63,41,62.8,40.8,62.7,41z M62.9,40.3
		c-0.1,0-0.1,0.1-0.1,0.1C62.9,40.4,62.8,40.3,62.9,40.3z M62.8,41.4c0-0.1,0.1-0.1,0.1-0.1C62.9,41.4,62.9,41.4,62.8,41.4z
		 M63.4,40.3c-0.1,0-0.1,0-0.3,0c0,0.1,0.1,0.1,0.2,0.1C63.4,40.4,63.4,40.3,63.4,40.3z M63.2,42.4c0.1,0,0.3,0.1,0.2-0.1
		C63.4,42.4,63.2,42.4,63.2,42.4z M63.5,40.6c-0.1,0.1-0.3,0-0.3,0.1C63.4,40.7,63.5,40.8,63.5,40.6z M63.3,39.6 M63.8,41.4
		c0-0.1,0-0.2,0-0.1c0,0.1-0.2,0.1-0.2,0.2C63.6,41.5,63.6,41.4,63.8,41.4z M63.6,42.5c0.2,0,0.5,0.1,0.5-0.2c-0.1,0.1-0.4,0-0.5,0
		C63.6,42.4,63.6,42.4,63.6,42.5z M63.6,40.3 M63.9,40.4c0.1,0,0.1,0.1,0.2,0.1c0-0.1,0.1-0.1,0.1-0.2c-0.1,0-0.4-0.2-0.4,0
		C64,40.3,64.1,40.3,63.9,40.4z M63.9,41.2c0,0.1-0.1,0.1,0,0.2C64,41.4,64,41.2,63.9,41.2z M64.6,41.3c-0.1-0.2-0.3-0.1-0.6-0.1
		C64.1,41.4,64.5,41.3,64.6,41.3z M64.2,40.5c0,0.2,0.1,0.2,0.3,0.2C64.4,40.6,64.3,40.5,64.2,40.5z M64.5,40.7
		C64.5,40.7,64.6,40.8,64.5,40.7C64.6,40.7,64.5,40.7,64.5,40.7z M64.7,40.9c-0.1-0.1-0.2,0-0.2,0.1C64.5,41,64.7,41,64.7,40.9z
		 M64.5,42.3c0,0,0.1,0,0.1,0C64.6,42.3,64.5,42.3,64.5,42.3z M65.3,41.5c-0.3,0.1-0.5,0-0.7,0.1C64.9,41.7,65.2,41.7,65.3,41.5z
		 M64.7,40.4 M64.7,40.7 M64.8,39.5 M64.8,40.7 M64.9,41.3c0,0,0.1,0,0.1-0.1C65,41.2,64.9,41.2,64.9,41.3z M65.1,42
		c0,0,0-0.1,0-0.1c0,0-0.1,0-0.1,0c0,0,0,0.1,0,0.1C65,42,65.1,42,65.1,42z M65.1,39.5C65.1,39.5,65.1,39.5,65.1,39.5
		c-0.1,0-0.1,0.1-0.1,0.1C65.1,39.5,65.2,39.5,65.1,39.5z M65.1,41.1c0,0.2,0.2,0.1,0.2,0C65.2,41.1,65.2,41.3,65.1,41.1z M65.1,41
		 M65.1,41.8c0,0.1,0.1,0.1,0.2,0.1C65.3,41.8,65.2,41.8,65.1,41.8z M65.2,39.5 M65.2,40.9C65.3,40.9,65.3,41,65.2,40.9
		C65.3,40.9,65.2,40.9,65.2,40.9z M66.4,41.5c-0.3-0.2-0.6,0-1.1,0C65.6,41.8,66,41.4,66.4,41.5z M65.6,40.1
		C65.5,40.1,65.5,40.1,65.6,40.1C65.5,40.1,65.5,40,65.6,40.1z M65.8,40.8c-0.1,0-0.2,0.1,0,0.1C65.7,40.9,65.8,41,65.8,40.8z
		 M65.7,39.5 M65.8,41.2c0.1,0,0.2,0,0.2-0.1C65.9,41.1,65.8,41.1,65.8,41.2z M65.8,41.8 M66,41.9c0,0,0-0.1,0-0.1c0,0-0.1,0-0.1,0
		C65.9,41.8,65.9,41.8,66,41.9C65.9,41.9,65.9,41.9,66,41.9z M66.2,41c0,0,0-0.1,0-0.1c-0.1,0-0.1,0.1-0.2,0.2
		C66.1,41,66.1,40.9,66.2,41z M66.4,41.8c0,0,0-0.1,0-0.1c-0.1,0-0.1,0.1-0.2,0.1C66.3,41.8,66.3,41.8,66.4,41.8z M66.2,39.5
		 M66.6,41.1 M66.6,40.4c0,0,0.1,0,0.1,0c0,0,0-0.1,0-0.1C66.7,40.3,66.6,40.3,66.6,40.4C66.6,40.3,66.6,40.4,66.6,40.4z M66.8,41.4
		c-0.1,0-0.1,0-0.1,0.1C66.7,41.5,66.8,41.5,66.8,41.4z M66.8,40.7c0.1,0,0.1,0,0.1,0C66.9,40.6,66.9,40.6,66.8,40.7z M66.9,41.4
		c0.1,0.1,0.3,0,0.2-0.1C67.1,41.4,66.9,41.4,66.9,41.4z M66.9,39.5 M67.5,41.1c0.1,0,0.2-0.1,0.1-0.2c-0.3,0-0.4,0-0.7,0
		c0.1,0.1-0.1,0.1-0.1,0.3C67.2,41,67.4,40.9,67.5,41.1z M67.1,40.6c0,0.2,0.2,0,0.3,0.1C67.3,40.5,67.2,40.7,67.1,40.6z M67.6,40.2
		c-0.1,0-0.1,0-0.1,0.1C67.5,40.3,67.5,40.2,67.6,40.2z M68.1,41.3c-0.3,0-0.4,0-0.6,0.1C67.6,41.4,68.1,41.4,68.1,41.3z M67.9,40.6
		C67.9,40.6,67.9,40.6,67.9,40.6C67.9,40.5,67.9,40.6,67.9,40.6z M67.9,40.2c0,0,0.1,0,0.1,0C68,40.2,67.9,40.2,67.9,40.2z
		 M68.3,39.5 M68.3,41.3 M68.3,40.6 M68.5,42 M68.8,41.2c-0.1,0.1-0.3,0-0.2,0.1C68.6,41.3,68.8,41.3,68.8,41.2z M68.6,40.6
		c0,0.2,0.2,0.1,0.2,0C68.7,40.6,68.7,40.6,68.6,40.6z M68.8,40.1c0,0.1-0.1,0.1,0,0.3C68.9,40.4,68.9,40.2,68.8,40.1z M69,40.3
		 M69.1,40.6 M69.2,40.6 M69.2,39.5 M69.3,40.3 M69.5,39.5 M69.5,40.7 M69.5,41.3 M69.9,41.1c-0.1,0-0.2,0-0.2,0.1
		C69.8,41.3,69.8,41.2,69.9,41.1z M69.9,40.3 M70,39.5 M70.2,40.3C70.2,40.2,70.2,40.2,70.2,40.3c0-0.1-0.1,0-0.1,0c0,0,0,0,0,0.1
		C70.2,40.3,70.2,40.3,70.2,40.3z M70.1,41.2 M70.6,40.4c-0.1-0.1-0.1-0.1-0.3-0.2c0,0.1-0.1,0.1,0,0.2
		C70.4,40.3,70.4,40.4,70.6,40.4z M70.8,40.3C70.8,40.3,70.8,40.3,70.8,40.3c0.1,0,0.1,0,0.1,0c0,0,0,0,0-0.1c0,0-0.1,0-0.1,0
		C70.8,40.2,70.8,40.2,70.8,40.3C70.8,40.2,70.8,40.3,70.8,40.3z M70.9,41.1c0.1,0.1,0.2,0.1,0.2,0C71,41.1,70.9,41.1,70.9,41.1z
		 M70.9,40.2 M71.1,41.1 M71.7,39.7C71.7,39.6,71.7,39.6,71.7,39.7C71.7,39.6,71.6,39.6,71.7,39.7C71.6,39.6,71.6,39.6,71.7,39.7
		C71.6,39.7,71.7,39.7,71.7,39.7z M71.7,40.3c0,0.1-0.1,0,0,0.1C71.8,40.5,71.8,40.3,71.7,40.3z M72,39.4c0,0.1-0.1,0.1-0.1,0.2
		C72,39.6,72.1,39.4,72,39.4z M72.5,39.6c0-0.1-0.1-0.1-0.1-0.2c0,0.1-0.1,0-0.1,0.1C72.3,39.5,72.3,39.6,72.5,39.6z M72.9,40.4
		C73,40.4,73,40.4,72.9,40.4C73,40.3,72.9,40.3,72.9,40.4z M73.2,40.4C73.3,40.4,73.3,40.4,73.2,40.4C73.3,40.4,73.2,40.4,73.2,40.4
		z M73.5,40.3 M74,40.2c-0.1,0-0.1,0-0.3,0C73.6,40.5,74,40.4,74,40.2z M77.8,40.1 M80.1,40.1"/>
</g>
</svg>
