<?xml version="1.0" encoding="utf-8"?>
<!-- Generator: Adobe Illustrator 16.0.0, SVG Export Plug-In . SVG Version: 6.00 Build 0)  -->
<!DOCTYPE svg PUBLIC "-//W3C//DTD SVG 1.1//EN" "http://www.w3.org/Graphics/SVG/1.1/DTD/svg11.dtd">
<svg version="1.1" id="Layer_1" xmlns="http://www.w3.org/2000/svg" xmlns:xlink="http://www.w3.org/1999/xlink" x="0px" y="0px"
	 width="100%" height="100%" viewBox="27 7.389 45.806 35.336" enable-background="new 27 7.389 45.806 35.336"
	 xml:space="preserve">
<g transform="translate(0.000000,900.000000) scale(0.100000,-0.100000)">
	<path d="M275.166,8924.833c-4.722-3.223-5.166-5.391-5.166-24.277c0-16.167,0.332-18.999,2.666-22.114
		c1.665-2.163,5.391-3.999,8.169-3.999c3.555,0,7.334,2.559,9.219,6.226c0.947,1.831,1.06,3.33,1.06,13.218v11.113l1.44,0.557
		c1.777,0.723,41.89,0.723,43.667,0.054c0.835-0.332,1.67-1.445,2.28-3.223c0.557-1.445,1.387-3.555,1.777-4.609
		s1.499-3.945,2.5-6.392c1.777-4.385,2.778-7.051,4.165-10.83c0.391-1.055,1.499-3.945,2.5-6.392c1.001-2.441,2.114-5.332,2.5-6.387
		c0.391-1.055,1.499-3.945,2.5-6.392c1.001-2.441,2.114-5.386,2.559-6.499c2.056-5.552,2.607-6.943,3.276-8.501
		c0.664-1.665,1.665-4.219,3.335-8.608c1.665-4.39,2.666-6.943,3.33-8.613c0.391-0.889,1.113-2.72,1.611-3.999
		c0.503-1.333,1.279-3.442,1.777-4.722c0.503-1.333,1.226-3.11,1.611-4.058c0.669-1.665,1.836-4.551,3.281-8.442
		c0.444-1.167,1.553-4.111,2.554-6.558c1.001-2.441,2.109-5.332,2.5-6.387c0.444-1.055,1.89-4.946,3.335-8.613
		c1.387-3.662,2.886-7.554,3.33-8.608c0.391-1.055,1.499-3.945,2.5-6.392c1.001-2.441,2.114-5.386,2.559-6.499
		c2.056-5.552,2.607-6.943,3.276-8.501c0.664-1.665,1.831-4.551,3.276-8.442c0.444-1.167,1.558-4.116,2.559-6.558
		c0.996-2.441,2.109-5.332,2.5-6.387c1.108-2.998,2.554-6.777,3.33-8.613c0.669-1.553,1.226-2.949,3.281-8.438
		c0.444-1.172,1.553-4.121,2.554-6.562s2.109-5.391,2.554-6.504c2.056-5.488,2.612-6.934,3.335-8.32
		c0.444-0.781,0.776-1.836,0.776-2.285c0-0.498,0.332-1.553,0.781-2.441c0.444-0.84,1.162-2.559,1.611-3.779
		c0.439-1.221,1.162-3.115,1.553-4.111c1.001-2.617,3.555-5.449,6.001-6.611c1.831-0.889,10.054-0.947,117.554-1.113
		c106.279-0.107,115.781-0.049,118.506,0.781c2.939,0.947,5.771,3.447,6.777,5.996c0.215,0.615,0.879,2.275,1.387,3.662
		c0.547,1.396,1.27,3.398,1.66,4.453s1.504,3.945,2.5,6.387c1.006,2.441,2.109,5.391,2.559,6.562
		c0.449,1.104,1.172,3.047,1.611,4.277c0.439,1.211,1.162,3.164,1.611,4.326c0.449,1.113,1.172,3.115,1.67,4.443
		c0.498,1.279,1.221,3.281,1.67,4.453c0.439,1.104,1.934,5.049,3.379,8.711c2.949,7.617,3.838,9.951,5,13.066
		c0.449,1.211,1.23,3.271,1.729,4.604c0.498,1.279,1.221,3.276,1.67,4.443c0.439,1.113,1.162,3.11,1.66,4.448
		c0.449,1.274,1.23,3.052,1.67,3.887c0.439,0.889,0.771,1.831,0.771,2.168c0,0.278,0.332,1.333,0.781,2.275
		c0.947,2.28,2.5,6.279,5,13.057c0.449,1.113,1.172,3.11,1.67,4.443c0.498,1.279,1.221,3.276,1.67,4.443
		c0.439,1.113,1.211,3.169,1.719,4.556c0.498,1.392,1.27,3.389,1.66,4.448c0.391,1.055,1.504,3.94,2.5,6.387
		c1.729,4.336,2.676,6.665,4.229,11.001c2.393,6.445,4.111,10.889,5.166,13.442c0.557,1.333,0.889,3.721,0.889,6.113
		c0,3.276-0.225,4.165-1.396,5.723c-2.598,3.496-4.941,4.165-22.5,6.499c-10.879,1.445-18.555,2.5-24.16,3.335
		c-5.225,0.776-11.66,1.665-24.727,3.389c-3.662,0.444-8.828,1.221-11.445,1.665c-2.656,0.444-5.547,0.776-6.387,0.776
		c-0.879,0-3.721,0.332-6.328,0.781c-2.617,0.498-7.832,1.221-11.67,1.719c-3.838,0.503-9.561,1.279-12.783,1.724
		s-8.32,1.167-11.387,1.611c-5.879,0.835-14.336,1.997-24.717,3.389c-3.506,0.444-8.779,1.167-11.67,1.611
		s-8.281,1.167-11.943,1.665c-3.662,0.503-9.17,1.226-12.217,1.67c-3.066,0.444-8.555,1.162-12.227,1.665
		c-3.672,0.498-9.062,1.221-11.943,1.665c-5.332,0.781-11.943,1.67-24.17,3.335c-3.662,0.498-9.053,1.221-11.943,1.665
		c-2.886,0.444-8.276,1.167-11.943,1.67c-3.667,0.498-9.165,1.221-12.222,1.665s-8.555,1.167-12.222,1.665
		c-3.667,0.503-8.833,1.279-11.445,1.724c-7.334,1.167-13.555,1.055-15.889-0.391c-3.223-1.997-4.609-4.663-4.609-8.833
		c0-2.944,0.273-3.999,1.387-5.664c2.612-3.892,3.501-4.17,23.335-6.836c3.667-0.498,9.053-1.221,11.943-1.665
		c5.332-0.776,11.943-1.665,24.165-3.335c3.667-0.498,9.058-1.221,11.943-1.665c5.112-0.723,12.559-1.777,24.17-3.335
		c14.326-1.943,19.277-2.607,24.17-3.33c2.891-0.449,8.271-1.167,11.934-1.67c9.668-1.279,22.285-3.057,35.84-4.941
		c3.223-0.444,8.828-1.226,12.5-1.724c8.34-1.113,17.227-2.334,24.443-3.335c3.057-0.444,8.447-1.167,11.943-1.665
		c3.496-0.503,8.887-1.221,11.953-1.665c3.047-0.449,8.555-1.167,12.217-1.67c3.662-0.498,9.053-1.221,11.943-1.665
		s8.389-1.167,12.227-1.665c7.549-0.947,13.828-1.836,24.16-3.447c7.5-1.167,7.441-1.108,5.557-5.83
		c-0.889-2.28-2.217-5.723-3.33-8.779c-0.781-2.114-2.832-7.388-3.555-9.17c-0.664-1.611-2.725-6.997-4.727-12.329
		c-0.449-1.167-1.221-3.223-1.719-4.614c-0.508-1.387-1.279-3.442-1.719-4.556c-1.953-5.332-2.617-6.943-3.34-8.501
		c-0.391-0.889-0.889-2.329-1.113-3.218c-0.166-0.835-0.547-1.67-0.83-1.836s-0.498-0.723-0.498-1.279
		c0-0.552-0.781-2.886-1.719-5.107c-0.957-2.28-2.061-5.059-2.5-6.167c-1.172-3.11-2.344-6.279-3.223-8.613
		c-0.449-1.162-1.621-4.229-2.559-6.826c-0.996-2.617-2.002-5.234-2.227-5.84c-0.664-1.562-2.715-6.836-3.613-9.16
		c-0.391-1.064-1.113-3.008-1.602-4.277c-0.508-1.338-1.289-3.457-1.777-4.727c-0.508-1.338-1.23-3.34-1.67-4.453
		c-1.787-4.824-2.393-6.445-3.447-9.043l-1.172-2.783l-107.5-0.166l-107.549-0.117l-0.503,1.23
		c-0.278,0.723-1.274,3.271-2.275,5.723c-1.001,2.441-2.109,5.332-2.5,6.387s-1.499,3.945-2.5,6.387s-2.109,5.391-2.554,6.562
		c-2.056,5.488-2.612,6.875-3.281,8.438c-0.776,1.895-2.275,5.723-3.33,8.613c-1.06,2.891-2.559,6.719-3.335,8.608
		c-0.391,0.947-1.113,2.666-1.558,3.892c-1.274,3.442-2.666,7.056-3.496,8.999c-0.449,0.942-0.781,1.997-0.781,2.275
		c0,0.337-0.332,1.279-0.776,2.168c-0.444,0.835-1.167,2.554-1.665,3.779c-0.444,1.221-2.002,5.22-3.389,8.887
		c-3.003,7.778-4.004,10.332-5.112,13.335c-0.503,1.221-1.167,2.998-1.558,3.887c-0.386,0.947-1.108,2.666-1.553,3.892
		c-1.611,4.39-2.5,6.719-4.277,11.108c-1.001,2.446-2.114,5.332-2.5,6.392c-0.444,1.055-1.948,4.941-3.335,8.608
		c-1.445,3.667-2.891,7.559-3.335,8.613c-0.386,1.055-1.499,3.945-2.5,6.387c-1.001,2.446-2.109,5.391-2.554,6.558
		c-1.221,3.276-2.559,6.665-3.057,7.886c-0.664,1.67-2.72,6.948-3.555,9.17c-0.391,1.055-1.499,3.945-2.5,6.387
		c-1.001,2.446-2.109,5.391-2.554,6.558c-1.445,3.887-2.612,6.777-3.281,8.442c-0.664,1.558-1.221,2.944-3.276,8.501
		c-0.444,1.113-1.558,4.058-2.554,6.499c-1.001,2.446-2.114,5.391-2.559,6.558c-0.444,1.108-1.167,3.11-1.665,4.443
		c-3.057,7.944-4.111,9.834-6.499,11.558l-2.222,1.611l-35.615-0.059h-35.61L275.166,8924.833z"/>
	<path d="M481.943,8664.442c-9.556-0.889-18.999-5.498-26.445-12.881c-14.497-14.336-17.944-35.781-8.721-54.062
		c5.776-11.562,16.221-19.834,29.946-23.828c4.219-1.23,17.666-1.23,22.056,0c11.055,2.988,19.561,8.662,25.83,17.109
		c5.273,7.109,7.5,12.559,9.062,21.885c0.83,5.391,0.83,6.162,0,11.777c-1.67,10.674-4.512,16.943-11.338,24.893
		c-2.666,3.047-7.061,6.777-10.391,8.828c-2.275,1.387-9.219,4.609-9.941,4.609c-0.391,0-1.724,0.332-2.891,0.781
		C496.333,8664.501,487.612,8664.94,481.943,8664.442z M494.722,8643.056c7.334-1.885,13.335-7.217,16.45-14.717
		c1.553-3.613,1.719-4.785,1.777-9.512c0-5.391-1.055-10.107-2.783-12.217c-0.391-0.439-0.723-1.055-0.723-1.279
		c0-0.938-4.17-5.449-6.611-7.168c-8.164-5.781-17.607-6.504-26.665-2.051c-2.891,1.445-7.998,6.113-9.834,9.004
		c-2.5,3.887-3.555,8.047-3.555,13.77c0,8.057,2.109,12.725,8.276,18.447c3.501,3.223,6.167,4.717,10.61,5.889
		C486.499,8644.442,489.277,8644.442,494.722,8643.056z"/>
	<path d="M602.5,8664.442c-12.109-1.162-23.721-7.998-31.328-18.33c-5.449-7.393-8.066-14.111-8.896-23.057
		c-1.553-16.162,5.283-31.445,18.613-41.836c1.279-0.996,2.5-1.777,2.783-1.777c0.215,0,0.83-0.332,1.27-0.723
		c1.23-0.996,8.555-4.053,12.393-5.107c4.229-1.172,19.229-0.889,23.721,0.449c4.941,1.494,11.777,5.098,15.996,8.496
		c3.506,2.715,10.723,10.996,10.723,12.217c0,0.225,0.332,0.83,0.723,1.279c1.23,1.445,4.121,8.945,5.059,13.164
		c1.67,7.393,0.889,18.008-1.719,24.941c-1.67,4.336-4.219,8.896-7.168,12.842c-2.891,3.887-9.062,9.502-12.109,11.055
		c-0.898,0.439-2.5,1.279-3.613,1.885C621.328,8663.886,612.334,8665.448,602.5,8664.442z M614.443,8643.28
		c7.725-2.227,13.281-6.777,16.553-13.506c4.844-10,2.832-21.494-5.107-29.17c-4.668-4.434-8.223-6.104-16.006-7.5
		c-2.266-0.381-8.271,0.781-11.826,2.285c-2.998,1.328-7.5,4.727-9.502,7.227c-8.281,10.381-7.559,24.219,1.719,33.711
		c4.277,4.336,8.838,6.562,15.84,7.783C607.891,8644.394,611.943,8644.003,614.443,8643.28z"/>
</g>
</svg>
