<?xml version="1.0" encoding="utf-8"?>
<!-- Generator: Adobe Illustrator 16.0.0, SVG Export Plug-In . SVG Version: 6.00 Build 0)  -->
<!DOCTYPE svg PUBLIC "-//W3C//DTD SVG 1.1//EN" "http://www.w3.org/Graphics/SVG/1.1/DTD/svg11.dtd">
<svg version="1.1" id="Layer_1" xmlns="http://www.w3.org/2000/svg" xmlns:xlink="http://www.w3.org/1999/xlink" x="0px" y="0px"
	 width="100%" height="100%" viewBox="29.167 2.417 41.666 45.166" enable-background="new 29.167 2.417 41.666 45.166"
	 xml:space="preserve">
<path d="M69.833,47.583H30.167c-0.277,0-0.542-0.114-0.73-0.317c-0.189-0.202-0.286-0.474-0.267-0.75
	C29.845,36.46,38.995,28.583,50,28.583s20.154,7.877,20.83,17.933c0.02,0.276-0.078,0.549-0.267,0.75
	C70.375,47.468,70.109,47.583,69.833,47.583z M31.815,45.158l36.242-0.012C66.898,36.653,59.559,31.125,50,31.125
	C40.441,31.125,32.975,36.665,31.815,45.158z M50,26.25c-5.031,0-9.125-5.906-9.125-13.166c0-7.864,4.714-10.667,9.125-10.667
	s9.125,2.802,9.125,10.667C59.125,20.344,55.031,26.25,50,26.25z M50,4.812c-4.528,0-6.938,2.617-6.938,8.125
	c0,6.157,3.009,10.688,6.938,10.688s6.812-4.343,6.812-10.5C56.812,7.617,54.527,4.812,50,4.812z"/>
</svg>
